<mxfile host="app.diagrams.net" modified="2022-08-08T08:06:27.857Z" agent="5.0 (Macintosh; Intel Mac OS X 10_15_7) AppleWebKit/537.36 (KHTML, like Gecko) Chrome/104.0.0.0 Safari/537.36" etag="_l_7XIQ5ZTVEyavDErN_" version="20.2.3" type="github">
  <diagram id="CcIM93JlUoaoU_YlzvHH" name="第 1 页">
    <mxGraphModel dx="1026" dy="536" grid="1" gridSize="10" guides="1" tooltips="1" connect="1" arrows="1" fold="1" page="1" pageScale="1" pageWidth="827" pageHeight="1169" math="0" shadow="0">
      <root>
        <mxCell id="0" />
        <mxCell id="1" parent="0" />
        <mxCell id="viYdmMyLKB6Rh_eZadXJ-28" value="庄市" style="points=[[0,0],[0.25,0],[0.5,0],[0.75,0],[1,0],[1,0.25],[1,0.5],[1,0.75],[1,1],[0.75,1],[0.5,1],[0.25,1],[0,1],[0,0.75],[0,0.5],[0,0.25]];outlineConnect=0;gradientColor=none;html=1;whiteSpace=wrap;fontSize=12;fontStyle=0;shape=mxgraph.aws4.group;grIcon=mxgraph.aws4.group_corporate_data_center;strokeColor=#5A6C86;fillColor=none;verticalAlign=top;align=left;spacingLeft=30;fontColor=#5A6C86;dashed=0;container=1;pointerEvents=0;collapsible=0;recursiveResize=0;" parent="1" vertex="1">
          <mxGeometry x="120" y="175" width="404" height="486" as="geometry" />
        </mxCell>
        <mxCell id="viYdmMyLKB6Rh_eZadXJ-80" value="应用服务器" style="sketch=0;outlineConnect=0;fontColor=#232F3E;gradientColor=none;strokeColor=#6881B3;fillColor=#ffffff;dashed=0;verticalLabelPosition=bottom;verticalAlign=top;align=center;html=1;fontSize=12;fontStyle=0;aspect=fixed;shape=mxgraph.aws4.resourceIcon;resIcon=mxgraph.aws4.traditional_server;" parent="viYdmMyLKB6Rh_eZadXJ-28" vertex="1">
          <mxGeometry x="150" y="160" width="60" height="60" as="geometry" />
        </mxCell>
        <mxCell id="CV1-Nt1nDM4ZvjUMffHP-8" value="应用服务器" style="sketch=0;outlineConnect=0;fontColor=#232F3E;gradientColor=none;strokeColor=#6881B3;fillColor=#ffffff;dashed=0;verticalLabelPosition=bottom;verticalAlign=top;align=center;html=1;fontSize=12;fontStyle=0;aspect=fixed;shape=mxgraph.aws4.resourceIcon;resIcon=mxgraph.aws4.traditional_server;" vertex="1" parent="viYdmMyLKB6Rh_eZadXJ-28">
          <mxGeometry x="220" y="160" width="60" height="60" as="geometry" />
        </mxCell>
        <mxCell id="CV1-Nt1nDM4ZvjUMffHP-16" value="Web服务器" style="sketch=0;outlineConnect=0;fontColor=#232F3E;gradientColor=none;strokeColor=#6881B3;fillColor=#ffffff;dashed=0;verticalLabelPosition=bottom;verticalAlign=top;align=center;html=1;fontSize=12;fontStyle=0;aspect=fixed;shape=mxgraph.aws4.resourceIcon;resIcon=mxgraph.aws4.traditional_server;" vertex="1" parent="viYdmMyLKB6Rh_eZadXJ-28">
          <mxGeometry x="150" y="80" width="60" height="60" as="geometry" />
        </mxCell>
        <mxCell id="CV1-Nt1nDM4ZvjUMffHP-17" value="Web服务器" style="sketch=0;outlineConnect=0;fontColor=#232F3E;gradientColor=none;strokeColor=#6881B3;fillColor=#ffffff;dashed=0;verticalLabelPosition=bottom;verticalAlign=top;align=center;html=1;fontSize=12;fontStyle=0;aspect=fixed;shape=mxgraph.aws4.resourceIcon;resIcon=mxgraph.aws4.traditional_server;" vertex="1" parent="viYdmMyLKB6Rh_eZadXJ-28">
          <mxGeometry x="220" y="80" width="60" height="60" as="geometry" />
        </mxCell>
        <mxCell id="CV1-Nt1nDM4ZvjUMffHP-20" value="" style="group;fontColor=#000000;fillColor=none;gradientColor=none;" vertex="1" connectable="0" parent="viYdmMyLKB6Rh_eZadXJ-28">
          <mxGeometry x="20" y="60" width="370" height="200" as="geometry" />
        </mxCell>
        <mxCell id="CV1-Nt1nDM4ZvjUMffHP-21" value="" style="rounded=0;whiteSpace=wrap;html=1;fontSize=12;fontColor=#000000;fillColor=none;dashed=1;align=center;" vertex="1" parent="CV1-Nt1nDM4ZvjUMffHP-20">
          <mxGeometry y="-10" width="370" height="210" as="geometry" />
        </mxCell>
        <mxCell id="CV1-Nt1nDM4ZvjUMffHP-2" value="" style="group" vertex="1" connectable="0" parent="viYdmMyLKB6Rh_eZadXJ-28">
          <mxGeometry x="190" y="390" width="110" height="90" as="geometry" />
        </mxCell>
        <mxCell id="viYdmMyLKB6Rh_eZadXJ-81" value="" style="strokeWidth=2;html=1;shape=mxgraph.flowchart.database;whiteSpace=wrap;fillColor=#FFFFFF;strokeColor=#6881B3;" parent="CV1-Nt1nDM4ZvjUMffHP-2" vertex="1">
          <mxGeometry x="10" width="50" height="50" as="geometry" />
        </mxCell>
        <mxCell id="CV1-Nt1nDM4ZvjUMffHP-1" value="Mysql主" style="text;html=1;strokeColor=none;fillColor=none;align=center;verticalAlign=middle;whiteSpace=wrap;rounded=0;" vertex="1" parent="CV1-Nt1nDM4ZvjUMffHP-2">
          <mxGeometry y="50" width="60" height="30" as="geometry" />
        </mxCell>
        <mxCell id="CV1-Nt1nDM4ZvjUMffHP-37" value="" style="group" vertex="1" connectable="0" parent="CV1-Nt1nDM4ZvjUMffHP-2">
          <mxGeometry x="-40" y="-40" width="150" height="130" as="geometry" />
        </mxCell>
        <mxCell id="CV1-Nt1nDM4ZvjUMffHP-34" value="" style="group;fontColor=#000000;fillColor=none;gradientColor=none;" vertex="1" connectable="0" parent="CV1-Nt1nDM4ZvjUMffHP-37">
          <mxGeometry y="10" width="150" height="110" as="geometry" />
        </mxCell>
        <mxCell id="CV1-Nt1nDM4ZvjUMffHP-35" value="" style="rounded=0;whiteSpace=wrap;html=1;fontSize=12;fontColor=#000000;fillColor=none;dashed=1;align=center;" vertex="1" parent="CV1-Nt1nDM4ZvjUMffHP-34">
          <mxGeometry y="-10" width="150" height="120" as="geometry" />
        </mxCell>
        <mxCell id="CV1-Nt1nDM4ZvjUMffHP-36" value="数据库区" style="text;html=1;strokeColor=none;fillColor=none;align=center;verticalAlign=middle;whiteSpace=wrap;rounded=0;dashed=1;fontSize=12;fontColor=#000000;" vertex="1" parent="CV1-Nt1nDM4ZvjUMffHP-37">
          <mxGeometry x="30" width="90" height="30" as="geometry" />
        </mxCell>
        <mxCell id="viYdmMyLKB6Rh_eZadXJ-29" value="东部" style="points=[[0,0],[0.25,0],[0.5,0],[0.75,0],[1,0],[1,0.25],[1,0.5],[1,0.75],[1,1],[0.75,1],[0.5,1],[0.25,1],[0,1],[0,0.75],[0,0.5],[0,0.25]];outlineConnect=0;gradientColor=none;html=1;whiteSpace=wrap;fontSize=12;fontStyle=0;shape=mxgraph.aws4.group;grIcon=mxgraph.aws4.group_corporate_data_center;strokeColor=#5A6C86;fillColor=none;verticalAlign=top;align=left;spacingLeft=30;fontColor=#5A6C86;dashed=0;container=1;pointerEvents=0;collapsible=0;recursiveResize=0;" parent="1" vertex="1">
          <mxGeometry x="540" y="175" width="404" height="486" as="geometry" />
        </mxCell>
        <mxCell id="CV1-Nt1nDM4ZvjUMffHP-23" value="" style="group" vertex="1" connectable="0" parent="viYdmMyLKB6Rh_eZadXJ-29">
          <mxGeometry x="200" y="390" width="60" height="80" as="geometry" />
        </mxCell>
        <mxCell id="CV1-Nt1nDM4ZvjUMffHP-24" value="" style="strokeWidth=2;html=1;shape=mxgraph.flowchart.database;whiteSpace=wrap;fillColor=#FFFFFF;strokeColor=#6881B3;" vertex="1" parent="CV1-Nt1nDM4ZvjUMffHP-23">
          <mxGeometry x="10" width="50" height="50" as="geometry" />
        </mxCell>
        <mxCell id="CV1-Nt1nDM4ZvjUMffHP-25" value="Mysql备A" style="text;html=1;strokeColor=none;fillColor=none;align=center;verticalAlign=middle;whiteSpace=wrap;rounded=0;" vertex="1" parent="CV1-Nt1nDM4ZvjUMffHP-23">
          <mxGeometry y="50" width="60" height="30" as="geometry" />
        </mxCell>
        <mxCell id="CV1-Nt1nDM4ZvjUMffHP-45" value="" style="group" vertex="1" connectable="0" parent="viYdmMyLKB6Rh_eZadXJ-29">
          <mxGeometry x="160" y="350" width="150" height="130" as="geometry" />
        </mxCell>
        <mxCell id="CV1-Nt1nDM4ZvjUMffHP-46" value="" style="group;fontColor=#000000;fillColor=none;gradientColor=none;" vertex="1" connectable="0" parent="CV1-Nt1nDM4ZvjUMffHP-45">
          <mxGeometry y="10" width="150" height="110" as="geometry" />
        </mxCell>
        <mxCell id="CV1-Nt1nDM4ZvjUMffHP-47" value="" style="rounded=0;whiteSpace=wrap;html=1;fontSize=12;fontColor=#000000;fillColor=none;dashed=1;align=center;" vertex="1" parent="CV1-Nt1nDM4ZvjUMffHP-46">
          <mxGeometry y="-10" width="150" height="120" as="geometry" />
        </mxCell>
        <mxCell id="CV1-Nt1nDM4ZvjUMffHP-48" value="数据库区" style="text;html=1;strokeColor=none;fillColor=none;align=center;verticalAlign=middle;whiteSpace=wrap;rounded=0;dashed=1;fontSize=12;fontColor=#000000;" vertex="1" parent="CV1-Nt1nDM4ZvjUMffHP-45">
          <mxGeometry x="30" width="90" height="30" as="geometry" />
        </mxCell>
        <mxCell id="CV1-Nt1nDM4ZvjUMffHP-4" value="公用Redis" style="sketch=0;aspect=fixed;html=1;points=[];align=center;image;fontSize=12;image=img/lib/mscae/Cache_Redis_Product.svg;fillColor=#6881B3;" vertex="1" parent="1">
          <mxGeometry x="240" y="730" width="50" height="42" as="geometry" />
        </mxCell>
        <mxCell id="CV1-Nt1nDM4ZvjUMffHP-5" value="SOFA MQ" style="sketch=0;points=[[0,0,0],[0.25,0,0],[0.5,0,0],[0.75,0,0],[1,0,0],[0,1,0],[0.25,1,0],[0.5,1,0],[0.75,1,0],[1,1,0],[0,0.25,0],[0,0.5,0],[0,0.75,0],[1,0.25,0],[1,0.5,0],[1,0.75,0]];outlineConnect=0;fontColor=#232F3E;gradientColor=none;gradientDirection=north;fillColor=#6881B3;strokeColor=#ffffff;dashed=0;verticalLabelPosition=bottom;verticalAlign=top;align=center;html=1;fontSize=12;fontStyle=0;aspect=fixed;shape=mxgraph.aws4.resourceIcon;resIcon=mxgraph.aws4.sqs;" vertex="1" parent="1">
          <mxGeometry x="330" y="726" width="44" height="44" as="geometry" />
        </mxCell>
        <mxCell id="CV1-Nt1nDM4ZvjUMffHP-6" value="&lt;font color=&quot;#000000&quot;&gt;对象存储&lt;/font&gt;" style="aspect=fixed;perimeter=ellipsePerimeter;html=1;align=center;shadow=0;dashed=0;fontColor=#4277BB;labelBackgroundColor=#ffffff;fontSize=12;spacingTop=3;image;image=img/lib/ibm/vpc/ObjectStorage.svg;fillColor=#6881B3;gradientColor=none;" vertex="1" parent="1">
          <mxGeometry x="400" y="726" width="44" height="44" as="geometry" />
        </mxCell>
        <mxCell id="CV1-Nt1nDM4ZvjUMffHP-13" value="" style="group;fontColor=#000000;fillColor=none;gradientColor=none;" vertex="1" connectable="0" parent="1">
          <mxGeometry x="370" y="990" width="155" height="135" as="geometry" />
        </mxCell>
        <mxCell id="CV1-Nt1nDM4ZvjUMffHP-14" value="" style="rounded=0;whiteSpace=wrap;html=1;fontSize=12;fontColor=#000000;fillColor=none;dashed=1;align=center;" vertex="1" parent="CV1-Nt1nDM4ZvjUMffHP-13">
          <mxGeometry width="155" height="135" as="geometry" />
        </mxCell>
        <mxCell id="CV1-Nt1nDM4ZvjUMffHP-15" value="分组" style="text;html=1;strokeColor=none;fillColor=none;align=center;verticalAlign=middle;whiteSpace=wrap;rounded=0;dashed=1;fontSize=12;fontColor=#000000;" vertex="1" parent="CV1-Nt1nDM4ZvjUMffHP-13">
          <mxGeometry x="37.46" width="92.54" height="36.82" as="geometry" />
        </mxCell>
        <mxCell id="CV1-Nt1nDM4ZvjUMffHP-22" value="应用区" style="text;html=1;strokeColor=none;fillColor=none;align=center;verticalAlign=middle;whiteSpace=wrap;rounded=0;dashed=1;fontSize=12;fontColor=#000000;" vertex="1" parent="1">
          <mxGeometry x="290" y="210" width="90" height="50" as="geometry" />
        </mxCell>
      </root>
    </mxGraphModel>
  </diagram>
</mxfile>
